<svg id="visual" viewBox="0 0 200 200" width="200" height="200" xmlns="http://www.w3.org/2000/svg" xmlns:xlink="http://www.w3.org/1999/xlink" version="1.1"><g transform="translate(101.81505353184258 91.2717253988566)"><path d="M31.5 -42.2C43.4 -34.7 57.4 -28.9 62.8 -18.8C68.2 -8.8 65 5.7 62.9 23C60.8 40.4 59.8 60.6 49.5 71.3C39.2 81.9 19.6 83 3.6 78C-12.3 73 -24.7 62 -37.4 52.1C-50 42.2 -63.1 33.5 -67.5 21.5C-72 9.6 -67.8 -5.6 -62.4 -19.7C-57 -33.8 -50.2 -46.8 -39.6 -54.7C-29 -62.6 -14.5 -65.3 -2.4 -62.1C9.8 -58.8 19.6 -49.6 31.5 -42.2" fill="hsla(0,44%,38%,1)"></path></g></svg>