<svg id="visual" viewBox="0 0 200 200" width="200" height="200" xmlns="http://www.w3.org/2000/svg" xmlns:xlink="http://www.w3.org/1999/xlink" version="1.1"><g transform="translate(97.47124404249155 112.93140804840974)"><path d="M46 -71C54.4 -57.2 52.4 -36.8 58.9 -18.7C65.3 -0.6 80.2 15.1 78.1 26.5C75.9 37.9 56.8 44.8 40.9 51.5C25.1 58.2 12.5 64.6 1.4 62.7C-9.8 60.8 -19.6 50.6 -30.7 42.4C-41.8 34.2 -54.2 27.9 -62.8 16.8C-71.3 5.7 -76.1 -10.3 -71.4 -22.7C-66.6 -35 -52.4 -43.8 -38.9 -55.9C-25.5 -68.1 -12.7 -83.5 3 -87.7C18.8 -91.9 37.6 -84.8 46 -71" fill="hsla(0,0%,30%,1)"></path></g></svg>