<svg id="visual" viewBox="0 0 200 200" width="200" height="200" xmlns="http://www.w3.org/2000/svg" xmlns:xlink="http://www.w3.org/1999/xlink" version="1.1"><g transform="translate(91.89472083246818 100.8438864453413)"><path d="M37.4 -43.6C53.3 -40 74.2 -35.4 80.4 -24.3C86.5 -13.1 78 4.7 67.6 17.4C57.3 30.1 45.1 37.7 33.5 42.3C21.9 46.9 11 48.4 -0.9 49.7C-12.7 50.9 -25.5 51.7 -34.2 46.2C-42.9 40.7 -47.6 28.9 -53.9 16C-60.2 3.1 -68.2 -10.8 -65.8 -22.4C-63.5 -34 -50.8 -43.3 -38.2 -48C-25.5 -52.7 -12.7 -52.9 -1 -51.5C10.8 -50.2 21.6 -47.3 37.4 -43.6" fill="hsla(167,60%,29%,1)"></path></g></svg>