<svg id="visual" viewBox="0 0 200 200" width="200" height="200" xmlns="http://www.w3.org/2000/svg" xmlns:xlink="http://www.w3.org/1999/xlink" version="1.1"><g transform="translate(95.12717879551892 113.75602000309597)"><path d="M48.6 -70.6C59.3 -59.2 61.5 -40 62.8 -23.4C64 -6.8 64.4 7.1 58.6 17.3C52.9 27.5 41.2 34 30.4 40.8C19.6 47.6 9.8 54.8 -1.9 57.4C-13.5 59.9 -27 57.9 -36.5 50.6C-46.1 43.4 -51.6 31 -53.2 18.9C-54.8 6.9 -52.6 -4.7 -52.9 -21.3C-53.2 -37.9 -56 -59.4 -47.6 -71.5C-39.2 -83.6 -19.6 -86.3 -0.3 -85.9C19 -85.5 38 -82 48.6 -70.6" fill="hsla(167,60%,29%,1)"></path></g></svg>