<svg id="visual" viewBox="0 0 200 200" width="200" height="200" xmlns="http://www.w3.org/2000/svg" xmlns:xlink="http://www.w3.org/1999/xlink" version="1.1"><g transform="translate(95.74245917307553 97.35893332203713)"><path d="M38.5 -51.5C53.9 -41.8 73.1 -35.9 75.2 -25.4C77.4 -14.8 62.5 0.3 53.2 13.7C43.9 27 40.1 38.6 32.2 51.2C24.3 63.8 12.1 77.4 -3.7 82.5C-19.6 87.6 -39.2 84.3 -47.4 71.8C-55.7 59.3 -52.6 37.7 -55.3 20.1C-58 2.6 -66.6 -10.9 -66.9 -25.3C-67.1 -39.7 -59.1 -55.1 -46.6 -65.7C-34.1 -76.3 -17 -82.1 -2.7 -78.4C11.6 -74.6 23.1 -61.2 38.5 -51.5" fill="hsla(0,0%,30%,1)"></path></g></svg>