<svg id="visual" viewBox="0 0 200 200" width="200" height="200" xmlns="http://www.w3.org/2000/svg" xmlns:xlink="http://www.w3.org/1999/xlink" version="1.1"><g transform="translate(111.27595083857817 90.32042658348409)"><path d="M30.9 -39.7C41.9 -34.6 53.7 -28 56.7 -18.5C59.6 -9.1 53.6 3.2 52 19.7C50.5 36.2 53.5 56.9 45.5 69C37.6 81.1 18.8 84.6 2.9 80.5C-12.9 76.5 -25.9 64.9 -33.8 52.8C-41.7 40.7 -44.6 28.1 -54 14.1C-63.4 0 -79.3 -15.4 -80 -30C-80.8 -44.6 -66.6 -58.3 -50.7 -61.8C-34.9 -65.3 -17.4 -58.7 -3.7 -53.5C10 -48.4 20 -44.8 30.9 -39.7" fill="hsla(36,60%,49%,1)"></path></g></svg>