<svg id="visual" viewBox="0 0 200 200" width="200" height="200" xmlns="http://www.w3.org/2000/svg" xmlns:xlink="http://www.w3.org/1999/xlink" version="1.1"><g transform="translate(94.6934919865075 110.95751561645879)"><path d="M48.7 -67.5C64.1 -55.8 78.2 -42.9 81.1 -27.8C84 -12.7 75.8 4.6 66.3 17.7C56.8 30.8 46 39.7 34.8 44.4C23.5 49 11.8 49.5 -3.5 54.4C-18.8 59.2 -37.6 68.4 -47 63.2C-56.3 57.9 -56.2 38 -60.6 20.6C-65 3.2 -73.9 -11.8 -70.2 -22.7C-66.5 -33.6 -50.3 -40.2 -36.5 -52.4C-22.7 -64.6 -11.4 -82.3 2.6 -85.9C16.7 -89.6 33.3 -79.2 48.7 -67.5" fill="hsla(36,60%,49%,1)"></path></g></svg>