<svg id="visual" viewBox="0 0 200 200" width="200" height="200" xmlns="http://www.w3.org/2000/svg" xmlns:xlink="http://www.w3.org/1999/xlink" version="1.1"><g transform="translate(110.35047355660046 103.49454333902517)"><path d="M47.3 -69.7C55.4 -59.2 51.9 -37.5 50.1 -21.4C48.2 -5.4 47.9 5 46.4 16.7C44.8 28.4 42.1 41.3 34.2 52.2C26.3 63.1 13.1 72.1 0.2 71.8C-12.7 71.5 -25.5 62.1 -38.5 52.8C-51.5 43.5 -64.7 34.4 -70.1 21.8C-75.5 9.3 -72.9 -6.8 -68.2 -22.5C-63.6 -38.2 -56.8 -53.5 -45 -62.8C-33.3 -72.2 -16.7 -75.6 1.5 -77.6C19.6 -79.6 39.2 -80.3 47.3 -69.7" fill="hsla(0,44%,38%,1)"></path></g></svg>