<svg id="visual" viewBox="0 0 960 540" width="960" height="540" xmlns="http://www.w3.org/2000/svg" xmlns:xlink="http://www.w3.org/1999/xlink" version="1.1"><path d="M0 343L22.8 348.3C45.7 353.7 91.3 364.3 137 365.8C182.7 367.3 228.3 359.7 274 359.7C319.7 359.7 365.3 367.3 411.2 370C457 372.7 503 370.3 548.8 346.7C594.7 323 640.3 278 686 268.3C731.7 258.7 777.3 284.3 823 302C868.7 319.7 914.3 329.3 937.2 334.2L960 339L960 0L937.2 0C914.3 0 868.7 0 823 0C777.3 0 731.7 0 686 0C640.3 0 594.7 0 548.8 0C503 0 457 0 411.2 0C365.3 0 319.7 0 274 0C228.3 0 182.7 0 137 0C91.3 0 45.7 0 22.8 0L0 0Z" fill="#261D1A" stroke-linecap="round" stroke-linejoin="miter"></path></svg>