<svg id="visual" viewBox="0 0 960 520" width="960" height="520" xmlns="http://www.w3.org/2000/svg" xmlns:xlink="http://www.w3.org/1999/xlink" version="1.1"><path d="M0 336L22.8 350.8C45.7 365.7 91.3 395.3 137 404.7C182.7 414 228.3 403 274 390.3C319.7 377.7 365.3 363.3 411.2 360.8C457 358.3 503 367.7 548.8 372.8C594.7 378 640.3 379 686 386C731.7 393 777.3 406 823 403C868.7 400 914.3 381 937.2 371.5L960 362L960 521L937.2 521C914.3 521 868.7 521 823 521C777.3 521 731.7 521 686 521C640.3 521 594.7 521 548.8 521C503 521 457 521 411.2 521C365.3 521 319.7 521 274 521C228.3 521 182.7 521 137 521C91.3 521 45.7 521 22.8 521L0 521Z" fill="#8C3737" stroke-linecap="round" stroke-linejoin="miter"></path></svg>