<?xml version="1.0" encoding="UTF-8" standalone="no"?>
<!-- Created with Inkscape (http://www.inkscape.org/) -->

<svg
   version="1.1"
   id="svg38785"
   xml:space="preserve"
   width="5669.2935"
   height="7181.1069"
   viewBox="0 0 5669.2935 7181.1069"
   sodipodi:docname="medicine.svg"
   inkscape:version="1.1.2 (1:1.1+202202050950+0a00cf5339)"
   xmlns:inkscape="http://www.inkscape.org/namespaces/inkscape"
   xmlns:sodipodi="http://sodipodi.sourceforge.net/DTD/sodipodi-0.dtd"
   xmlns="http://www.w3.org/2000/svg"
   xmlns:svg="http://www.w3.org/2000/svg"><defs
     id="defs38789"><clipPath
       clipPathUnits="userSpaceOnUse"
       id="clipPath38817"><path
         d="M 0,5385.827 H 4251.968 V 0 H 0 Z"
         id="path38815" /></clipPath><clipPath
       clipPathUnits="userSpaceOnUse"
       id="clipPath38909"><path
         d="M 0,5385.827 H 4251.968 V 0 H 0 Z"
         id="path38907" /></clipPath><clipPath
       clipPathUnits="userSpaceOnUse"
       id="clipPath40833"><path
         d="m 2979.81,3463.84 h 152.7 v -193.81 h -152.7 z"
         id="path40831" /></clipPath><clipPath
       clipPathUnits="userSpaceOnUse"
       id="clipPath40949"><path
         d="m 3002.54,3321.44 h 152.7 v -193.8 h -152.7 z"
         id="path40947" /></clipPath></defs><sodipodi:namedview
     id="namedview38787"
     pagecolor="#505050"
     bordercolor="#eeeeee"
     borderopacity="1"
     inkscape:pageshadow="0"
     inkscape:pageopacity="0"
     inkscape:pagecheckerboard="0"
     showgrid="false"
     inkscape:zoom="0.058765313"
     inkscape:cx="-1148.6368"
     inkscape:cy="5794.2344"
     inkscape:window-width="1920"
     inkscape:window-height="1016"
     inkscape:window-x="1920"
     inkscape:window-y="27"
     inkscape:window-maximized="1"
     inkscape:current-layer="g38791" /><g
     id="g38791"
     inkscape:groupmode="layer"
     inkscape:label="bonus"
     transform="matrix(1.3333333,0,0,-1.3333333,0,7181.1067)"><g
       id="g40827"
       transform="translate(-5386.9115,-1804.3181)"><g
         id="g40829" /><g
         id="g40837"><g
           clip-path="url(#clipPath40833)"
           opacity="0.169998"
           id="g40835" /></g></g><g
       id="g40943"
       transform="translate(-5386.9115,-1804.3181)"><g
         id="g40945" /><g
         id="g40953"><g
           clip-path="url(#clipPath40949)"
           opacity="0.169998"
           id="g40951" /></g></g><g
       id="g44259"
       transform="matrix(8.4399564,0,0,8.4399564,1077.3857,886.66792)"><path
         d="m 0,0 c -4.22,12.696 -0.892,25.898 7.906,31.413 l 0.088,0.056 0.17,0.106 0.085,0.054 0.071,0.07 0.144,0.141 0.071,0.07 0.143,0.14 0.072,0.071 0.143,0.14 0.072,0.071 0.055,0.085 0.11,0.168 0.055,0.085 c 1.742,2.677 3.914,4.797 6.458,6.304 l 1.721,1.02 0.187,0.111 0.375,0.222 0.188,0.111 0.118,0.183 0.237,0.366 0.118,0.183 0.058,0.089 c 1.43,2.195 3.206,4.147 5.429,5.967 l 0.163,0.133 0.18,0.113 c 3.836,2.386 8.439,3.401 13.312,2.935 8.254,-0.789 16.245,-5.57 21.924,-13.116 C 67.54,26.807 68.842,13.214 62.82,4.233 62.202,3.363 61.53,2.55 60.811,1.803 l -0.789,-0.819 -1.582,-1.642 -3.164,-3.284 0.697,-1.569 4.558,0.146 2.279,0.073 1.139,0.037 c 1.937,0.063 3.848,0.008 5.681,-0.162 l 0.106,-0.01 c 0.54,-0.052 1.098,-0.116 1.755,-0.203 l 0.888,-0.135 c 2.315,-0.375 4.269,-0.878 5.436,-1.178 l 0.08,-0.021 c 8.101,-2.293 15.272,-6.875 20.178,-12.899 5.096,-6.256 7.521,-13.812 6.829,-21.277 -0.101,-1.089 -0.274,-2.182 -0.516,-3.25 l -0.016,-0.07 -0.032,-0.145 -0.063,-0.281 -0.032,-0.14 0.013,-0.144 0.025,-0.287 0.012,-0.144 0.007,-0.075 c 0.003,-0.039 0.003,-0.079 -10e-4,-0.121 -0.814,-8.773 -3.487,-14.759 -8.413,-18.837 -6.757,-5.594 -17.569,-7.466 -34.028,-5.892 -20.77,1.986 -36.11,9.247 -41.035,19.423 C 15.406,-39.911 2.562,-8.39 0,0"
         style="fill:#ffffff;fill-opacity:1;fill-rule:nonzero;stroke:none"
         id="path44261" /></g><g
       id="g44263"
       transform="matrix(8.4399564,0,0,8.4399564,1187.6217,444.30534)"><path
         d="m 0,0 c 0.869,0.045 1.654,-6.727 7.036,-11.544 5.19,-5.024 11.999,-5.322 12.018,-6.192 0.32,-0.903 -8.147,-2.62 -14.59,3.428 C -2.03,-8.313 -0.923,0.255 0,0"
         style="fill:#211d1e;fill-opacity:1;fill-rule:nonzero;stroke:none"
         id="path44265" /></g><g
       id="g44267"
       transform="matrix(8.4399564,0,0,8.4399564,1847.9984,503.94967)"><path
         d="m 0,0 c -0.94,0.281 0.777,7.777 -3.128,14.928 -3.624,7.299 -10.753,10.184 -10.444,11.116 0,1.08 9.106,-0.57 13.677,-9.431 C 4.749,7.79 0.886,-0.619 0,0"
         style="fill:#211d1e;fill-opacity:1;fill-rule:nonzero;stroke:none"
         id="path44269" /></g><g
       id="g44271"
       transform="matrix(8.4399564,0,0,8.4399564,1382.0478,1046.7427)"><path
         d="m 0,0 c -3.36,6.447 -2.785,13.392 1.283,15.512 4.069,2.12 10.09,-1.387 13.45,-7.834 C 18.093,1.231 17.518,-5.714 13.449,-7.834 9.381,-9.954 3.359,-6.447 0,0"
         style="fill:#211d1e;fill-opacity:1;fill-rule:nonzero;stroke:none"
         id="path44273" /></g><g
       id="g44275"
       transform="matrix(8.4399564,0,0,8.4399564,1108.9916,1059.5874)"><path
         d="m 0,0 c -0.524,-4.771 -0.016,-9.914 1.662,-14.986 1.26,-4.088 4.555,-10.779 8.72,-19.239 4.451,-9.039 9.492,-19.278 13.51,-29.245 4.006,-13.441 21.044,-16.171 36.727,-17.67 l 0.875,-0.082 c 10.825,-1.005 19.455,-1.26 26.39,0.759 2.397,0.698 4.495,1.663 6.312,2.872 -1.122,-2.234 -2.572,-4.068 -4.379,-5.565 C 83.912,-88.043 73.629,-89.71 58.378,-88.252 35.379,-86.053 23.569,-77.8 20.186,-70.809 14.949,-59.988 2.01,-28.228 -0.478,-20.087 -2.852,-12.945 -2.514,-5.573 0,0 m 97.856,-62.084 c -0.137,-1.479 -0.392,-2.823 -0.756,-4.045 -0.019,-0.057 -0.038,-0.113 -0.054,-0.172 -3.645,-11.81 -17.651,-11.929 -35.124,-10.308 -0.288,0.026 -0.576,0.053 -0.862,0.081 -16.107,1.54 -29.897,4.217 -32.8,14.63 -0.001,0 -0.007,0 -0.007,0 C 20.429,-42.443 8.464,-21.39 6.075,-13.577 2.151,-1.773 5.476,10.2 13.479,14.941 10.347,6.828 13.753,0.892 14.549,0.816 c 0.068,-0.006 0.117,0.03 0.141,0.112 0.513,0.477 -2.143,6.918 1.18,14.213 1.796,4.094 4.456,6.707 6.442,8.333 3.326,2.07 7.249,2.848 11.292,2.462 7.003,-0.669 14.369,-4.833 19.64,-11.839 7.25,-9.635 8.236,-21.59 3.102,-29.246 -0.71,-1.002 -1.565,-1.995 -2.604,-2.922 -5.573,-5.142 -12.481,-3.71 -12.74,-4.364 -0.411,-0.266 1.081,-1.164 3.514,-1.397 1.794,-0.171 4.099,0.018 6.533,1.088 0.34,-1.806 1.014,-3.608 1.671,-5.074 -0.221,-0.053 -0.439,-0.101 -0.663,-0.159 -15.04,-4.299 -19.36,-13.55 -18.393,-13.643 0.036,-0.003 0.08,0.006 0.131,0.029 0.005,0 0.01,-10e-4 0.014,-0.002 1.103,-0.105 6.707,7.607 19.041,10.728 2.529,0.672 4.936,1.005 7.178,1.119 1.796,0.066 3.623,0.029 5.477,-0.143 0.035,-0.003 0.07,-0.006 0.105,-0.009 0.538,-0.052 1.071,-0.114 1.601,-0.185 0.131,-0.018 0.262,-0.037 0.391,-0.057 0.146,-0.021 0.291,-0.046 0.437,-0.068 2.078,-0.337 3.806,-0.773 5.097,-1.104 15.377,-4.35 26,-16.971 24.72,-30.772 M -5.167,-21.583 c 2.575,-8.427 15.491,-40.147 20.922,-51.369 5.138,-10.616 20.896,-18.168 42.154,-20.2 16.85,-1.611 27.987,0.361 35.047,6.205 5.229,4.329 8.06,10.613 8.91,19.778 0.024,0.257 -0.004,0.504 -0.056,0.743 0.304,1.236 0.531,2.534 0.659,3.914 0.726,7.829 -1.808,15.743 -7.135,22.284 -5.085,6.243 -12.521,10.993 -20.937,13.374 l -0.056,0.016 -0.055,0.014 c -1.179,0.302 -3.151,0.807 -5.545,1.195 l -0.136,0.022 c -0.117,0.019 -0.233,0.037 -0.308,0.047 -0.145,0.023 -0.292,0.044 -0.475,0.07 -0.619,0.082 -1.199,0.149 -1.771,0.204 l -0.118,0.011 c -1.96,0.181 -4.004,0.235 -6.075,0.159 l -0.033,-0.002 -0.033,-0.001 c -1.029,-0.053 -2.055,-0.145 -3.074,-0.277 -0.441,1.046 -0.778,2.042 -0.992,2.933 0.38,0.298 0.756,0.618 1.129,0.961 1.211,1.084 2.312,2.32 3.271,3.674 l 0.035,0.049 0.033,0.05 c 6.325,9.431 4.989,23.664 -3.248,34.612 -5.913,7.858 -14.26,12.839 -22.901,13.665 -5.18,0.495 -10.084,-0.591 -14.181,-3.14 L 19.609,27.249 19.376,27.058 C 16.883,25.016 14.881,22.763 13.318,20.23 L 11.117,18.927 C 8.138,17.162 5.708,14.65 3.863,11.648 3.836,11.633 3.807,11.625 3.779,11.609 -5.894,5.878 -9.656,-8.08 -5.167,-21.583"
         style="fill:#211d1e;fill-opacity:1;fill-rule:nonzero;stroke:none"
         id="path44277" /></g><g
       id="g44279"
       transform="matrix(8.4399564,0,0,8.4399564,3036.2607,3309.5221)"><path
         d="M 0,0 C -18.665,-54.719 -38.858,-82.47 -79.473,-98.451"
         style="fill:none;stroke:#211d1e;stroke-width:20;stroke-linecap:round;stroke-linejoin:miter;stroke-miterlimit:10;stroke-dasharray:none;stroke-opacity:1"
         id="path44281" /></g><g
       id="g44283"
       transform="matrix(8.4399564,0,0,8.4399564,2605.5081,1814.3229)"><path
         d="M 0,0 C 22.173,-68.93 -87.468,-93.43 -135.878,-86.9"
         style="fill:none;stroke:#211d1e;stroke-width:20;stroke-linecap:round;stroke-linejoin:miter;stroke-miterlimit:10;stroke-dasharray:none;stroke-opacity:1"
         id="path44285" /></g><g
       id="g44287"
       transform="matrix(8.4399564,0,0,8.4399564,3440.4173,3378.3053)"><path
         d="m 0,0 c -1.176,-2.09 -4.072,-5.429 -8.097,-6.549 l 0.22,-0.674 c 1.033,-3.159 0.181,-7.323 -2.336,-11.444 -3.967,-7.841 -10.788,-12.267 -19.618,-12.895 l -0.493,-2.604 c -0.372,-1.968 -1.402,-3.567 -3.062,-4.75 -3.579,-2.555 -9.635,-2.852 -14.889,-2.02 -1.277,0.202 -2.507,0.471 -3.642,0.79 -9.255,2.601 -20.103,9.918 -21.489,17.208 -0.391,2.058 -0.175,5.135 3.078,8.101 l 1.668,1.52 c -0.646,0.966 -1.175,1.933 -1.572,2.89 -5.686,13.723 -2.418,22.344 1.961,29.615 2.789,4.634 5.855,8.705 12.647,7.63 1.682,-0.267 3.59,-0.833 5.997,-1.79 l 0.341,1.477 c 0.067,0.289 0.272,1.07 0.503,1.946 0.285,1.079 0.612,2.315 0.726,2.826 0.697,3.145 2.149,9.695 2.783,18.923 0.161,2.591 0.256,4.722 0.336,6.509 0.262,5.879 0.381,8.563 2.273,12.132 2.269,4.321 6.776,6.875 10.964,6.212 2.404,-0.381 4.482,-1.736 6.008,-3.915 4.465,-6.419 4.135,-15.067 2.363,-31.876 l 1.794,-0.206 c 4.265,-0.487 7.617,-2.576 10.081,-6.201 0.36,-0.53 0.673,-1.117 0.939,-1.753 l 3.865,-2.306 C 4.224,22.308 6.648,11.813 0,0"
         style="fill:#ffffff;fill-opacity:1;fill-rule:nonzero;stroke:none"
         id="path44289" /></g><g
       id="g44291"
       transform="matrix(8.4399564,0,0,8.4399564,3173.4834,3507.4163)"><path
         d="m 0,0 0.033,0.066 -0.195,0.18 C -0.107,0.164 -0.053,0.083 0,0"
         style="fill:#ffffff;fill-opacity:1;fill-rule:nonzero;stroke:none"
         id="path44293" /></g><g
       id="g44295"
       transform="matrix(8.4399564,0,0,8.4399564,2980.4844,3885.3516)"><path
         d="m 0,0 c 0.916,0.208 -0.248,7.472 3.934,14.051 3.923,6.736 10.91,9.037 10.675,9.946 C 14.677,25.028 5.38,24.336 0.454,16.169 -4.539,8.042 -0.885,-0.534 0,0"
         style="fill:#211d1e;fill-opacity:1;fill-rule:nonzero;stroke:none"
         id="path44297" /></g><g
       id="g44299"
       transform="matrix(8.4399564,0,0,8.4399564,3418.1214,3389.2711)"><path
         d="m 0,0 c -1.188,-2.11 -4.749,-6.046 -9.402,-5.309 -1.93,0.306 -4.048,1.416 -6.262,3.795 7.065,6.704 11.863,19.833 10.09,26.263 C -1.921,22.57 8.683,15.429 0,0 m -10.221,-18.676 c -5.069,-10.138 -14.713,-12.553 -24.545,-10.996 -13.339,2.113 -27.021,11.541 -30.08,18.923 -4.888,11.797 -2.833,19.293 1.759,26.919 2.899,4.817 5.023,6.94 9.608,6.214 2.012,-0.319 4.498,-1.186 7.732,-2.616 4.458,-1.971 6.582,-2.892 8.686,-3.584 7.16,-2.355 7.605,-8.56 5.961,-11.27 -2.067,-3.408 -6.472,-6.72 -12.458,-5.772 -0.641,0.101 -1.3,0.252 -1.976,0.456 -5.601,1.692 -8.008,3.264 -9.025,4.195 -0.052,0.047 -0.109,0.073 -0.165,0.082 -0.222,0.036 -0.443,-0.19 -0.349,-0.447 0.542,-1.495 2.428,-4.074 8.844,-6.194 2.139,-0.706 3.983,-1.168 5.589,-1.422 5.664,-0.898 8.37,0.784 10.59,3.405 0.069,0.115 0.123,0.186 0.147,0.182 0.003,-0.001 0.005,-0.001 0.007,-0.004 1.979,-2.101 4.452,-3.357 6.516,-3.684 0.592,-0.093 1.15,-0.111 1.653,-0.05 0.68,0.081 1.369,0.244 2.056,0.486 1.524,-1.593 4.857,-4.938 9.352,-5.65 0.707,-0.112 1.443,-0.158 2.205,-0.123 0.75,-2.295 -0.023,-5.681 -2.107,-9.05 m -22.293,-19.27 c -3.442,-2.457 -10.8,-2.235 -15.976,-0.783 -8.257,2.319 -18.236,9.002 -19.354,14.881 -0.366,1.923 0.34,3.672 2.152,5.323 6.5,-7.526 18.678,-14.269 30.144,-16.085 1.673,-0.265 3.305,-0.421 4.891,-0.469 -0.228,-1.205 -0.826,-2.131 -1.857,-2.867 m -4.885,103.914 c 1.677,3.198 4.896,5.117 7.843,4.651 1.487,-0.236 2.905,-1.079 4.02,-2.673 3.807,-5.472 3.598,-13.191 1.811,-30.086 -0.663,-6.265 -1.972,-13.193 -5.273,-19.879 -2.47,2.266 -11.695,4.684 -14.751,6.377 0.15,0.647 1.029,3.87 1.235,4.796 0.844,3.806 2.221,10.253 2.847,19.37 0.679,10.9 0.19,13.525 2.268,17.444 m 18.135,-31.363 c 0.181,-0.02 0.36,-0.045 0.536,-0.073 3.333,-0.527 5.693,-2.314 7.406,-4.834 3.834,-5.644 0.559,-21.475 -8.716,-29.182 -0.574,-0.477 -1.318,-0.574 -2.113,-0.448 -2.405,0.381 -5.283,2.8 -5.38,2.877 2.066,3.03 2.329,7.024 1.556,10.237 5.219,10.254 6.007,14.362 6.711,21.423 m 25.562,-15 c -1.901,3.748 -4.946,6.835 -9.31,9.438 l -3.321,1.981 c -0.254,0.525 -0.539,1.021 -0.853,1.484 -2.658,3.91 -6.278,6.253 -10.76,6.963 -0.19,0.03 -0.382,0.058 -0.576,0.081 1.637,16.031 1.745,24.558 -2.91,31.25 -1.826,2.609 -4.431,4.294 -7.342,4.755 -5.104,0.809 -10.35,-2.112 -13.053,-7.268 -2.093,-3.947 -2.227,-6.96 -2.495,-12.963 -0.082,-1.83 -0.174,-3.905 -0.335,-6.492 -0.621,-9.047 -2.051,-15.498 -2.739,-18.598 -0.095,-0.431 -0.448,-1.767 -0.705,-2.742 -0.125,-0.471 -0.241,-0.916 -0.335,-1.276 -1.592,0.544 -2.979,0.901 -4.261,1.104 -8.014,1.27 -11.776,-3.76 -14.674,-8.574 -4.648,-7.72 -8.12,-16.869 -2.094,-31.411 0.244,-0.589 0.533,-1.181 0.861,-1.771 -4.327,-3.669 -4.671,-7.618 -4.152,-10.348 1.688,-8.881 14.671,-16.445 22.913,-18.761 0.984,-0.276 2.23,-0.554 3.64,-0.778 5.028,-0.796 12.115,-0.891 16.594,2.306 2.399,1.712 3.777,4.191 4.016,7.172 8.763,1.089 15.715,5.826 19.743,13.731 2.498,4.119 3.487,8.352 2.798,11.846 0.873,0.392 1.727,0.883 2.554,1.473 2.789,1.989 4.325,4.398 4.855,5.34 3.151,5.599 6.045,13.969 1.941,22.058"
         style="fill:#211d1e;fill-opacity:1;fill-rule:nonzero;stroke:none"
         id="path44301" /></g><g
       id="g44303"
       transform="matrix(8.4399564,0,0,8.4399564,2739.3996,876.31379)"><path
         d="M 0,0 C -50.602,27.964 -85.979,52.38 -108.174,97.174"
         style="fill:none;stroke:#ffffff;stroke-width:30;stroke-linecap:round;stroke-linejoin:miter;stroke-miterlimit:10;stroke-dasharray:none;stroke-opacity:1"
         id="path44305" /></g><g
       id="g44307"
       transform="matrix(8.4399564,0,0,8.4399564,2739.3996,876.31379)"><path
         d="M 0,0 C -50.602,27.964 -85.979,52.38 -108.174,97.174"
         style="fill:none;stroke:#211d1e;stroke-width:20;stroke-linecap:round;stroke-linejoin:miter;stroke-miterlimit:10;stroke-dasharray:none;stroke-opacity:1"
         id="path44309" /></g><g
       id="g44311"
       transform="matrix(8.4399564,0,0,8.4399564,2909.9425,311.50852)"><path
         d="M 0,0 -0.041,0.049 -0.12,0.145 -0.161,0.194 -0.207,0.238 -0.299,0.324 -0.346,0.368 c -0.257,0.241 -0.446,0.429 -0.612,0.61 -1.552,1.687 -2.901,3.237 -4.127,4.739 l -0.05,0.061 -0.112,0.139 -0.057,0.069 -0.067,0.058 -0.136,0.117 -0.066,0.057 c -0.175,0.152 -0.22,0.205 -0.242,0.23 -0.746,0.874 -1.42,1.817 -2.002,2.802 l -0.042,0.071 -0.014,0.024 -0.015,0.023 -0.069,0.103 c -1.754,2.487 -2.998,4.616 -4.314,6.872 -0.649,1.109 -1.258,2.15 -1.94,3.272 l -0.071,0.121 c -0.593,1.025 -1.163,2.108 -1.688,3.21 l -0.128,0.269 -0.26,0.55 -0.524,1.104 -0.262,0.552 -0.61,0.019 -1.221,0.039 -0.61,0.019 -0.305,0.009 c -1.544,0.047 -2.998,0.395 -4.324,1.035 -4.721,2.278 -7.29,7.791 -7.234,15.523 0.051,6.811 2.129,14.811 5.85,22.526 5.44,11.277 13.218,19.738 20.806,22.631 l 0.326,0.125 0.643,0.247 1.284,0.491 0.642,0.247 v 0.687 l 0.001,1.374 v 0.688 0.345 c 0,0.399 0.006,0.795 0.018,1.189 0.003,0.086 0.007,0.155 0.013,0.218 l 0.125,1.348 c 0.783,8.428 1.855,19.971 10.986,31.435 9.932,12.471 20.895,18.478 33.516,18.363 8.698,-0.08 18.248,-3.187 28.387,-9.237 0.688,-0.412 1.331,-0.912 1.91,-1.488 l 0.043,-0.043 0.093,-0.092 0.047,-0.047 0.053,-0.041 0.105,-0.079 0.049,-0.038 c 4.358,-3.353 7.821,-9.659 9.261,-16.865 1.629,-8.15 0.42,-16.041 -3.403,-22.219 C 71.047,80.483 43.381,35.302 34.175,14.3 30.187,5.201 23.962,-0.982 16.647,-3.112 14.805,-3.648 12.91,-3.911 11.016,-3.894 7.346,-3.86 3.816,-2.776 0.809,-0.757 0.536,-0.574 0.264,-0.319 0,0"
         style="fill:#ffffff;fill-opacity:1;fill-rule:nonzero;stroke:none"
         id="path44313" /></g><g
       id="g44315"
       transform="matrix(8.4399564,0,0,8.4399564,3016.7881,185.02396)"><path
         d="m 0,0 c -0.243,0.961 -8.059,0.347 -15.239,5.19 -7.345,4.588 -9.965,11.978 -10.941,11.809 -1.114,0.153 -0.187,-9.488 8.722,-15.226 C -8.591,-4.031 0.594,-0.955 0,0"
         style="fill:#211d1e;fill-opacity:1;fill-rule:nonzero;stroke:none"
         id="path44317" /></g><g
       id="g44319"
       transform="matrix(8.4399564,0,0,8.4399564,2720.4368,836.91776)"><path
         d="M 0,0 C 5.848,12.123 14.555,20.564 21.431,21.559 22.132,17.475 23.277,14.126 24.554,11.463 24.543,11.457 24.532,11.453 24.52,11.447 11.703,4.568 9.539,-4.679 10.399,-4.687 c 0.038,0 0.081,0.018 0.131,0.054 1.011,0.053 4.587,8.267 15.29,13.596 0.022,0.011 0.042,0.019 0.064,0.03 2.387,-3.97 4.842,-5.798 5.513,-5.804 0.144,-10e-4 0.206,0.082 0.166,0.246 0.406,1.096 -6.665,8.629 -7.428,22.399 -0.085,1.246 -0.102,2.453 -0.068,3.621 0.816,8.545 1.423,19.686 10.362,30.91 7.727,9.702 17.487,17.165 30.748,17.044 1.421,-0.013 2.883,-0.113 4.386,-0.307 C 68.696,76.826 67.834,76.497 66.98,76.11 56.353,71.283 48.38,58.541 45.107,41.152 42.697,28.354 33.555,-3.585 20.67,-20.629 c -4.426,-5.854 -8.666,-13.117 -9.757,-20.431 -6.146,11.004 -4.875,20.015 -5.789,20.651 -0.04,0.1 -0.094,0.149 -0.159,0.15 -0.679,0.006 -2.502,-5.338 -0.372,-13.658 -0.597,-0.105 -1.182,-0.157 -1.751,-0.152 -1.097,0.01 -2.135,0.232 -3.089,0.693 C -7.349,-29.95 -7.239,-15.007 0,0 m 24.658,-23.644 c 13.42,17.752 22.883,50.697 25.362,63.87 2.969,15.768 9.903,27.187 19.028,31.331 3.455,1.57 6.973,1.956 10.381,1.179 C 69.202,68.695 59.142,56.623 55.502,37.281 52.967,23.814 43.611,-8.337 30.602,-25.544 22.981,-35.626 19.464,-46.101 19.039,-53.847 c -0.499,0.64 -0.967,1.258 -1.393,1.85 -4.158,7.15 -1.823,16.665 7.012,28.353 M 34.906,-40.99 c 2.422,4.46 6.667,6.838 9.482,5.31 2.815,-1.528 3.135,-6.383 0.713,-10.844 -2.421,-4.461 -6.666,-6.839 -9.481,-5.311 -2.816,1.529 -3.135,6.384 -0.714,10.845 m 5.869,19.821 c -0.441,0.725 6.604,4.606 13.293,0.935 6.724,-3.609 7.308,-11.631 6.46,-11.656 -0.747,-0.28 -2.651,5.603 -8.195,8.458 -5.416,3.094 -11.385,1.485 -11.558,2.263 m 60.554,68.396 c 0.698,-14.896 -9.485,-21.519 -9.34,-19.892 -0.455,0.924 6.767,8.198 6.121,19.869 -0.476,11.622 -7.37,18.359 -6.943,19.257 -0.353,1.389 9.024,-4.472 10.162,-19.234 m -111.83,-68.221 c -0.062,-8.345 2.808,-14.342 8.082,-16.886 1.6,-0.771 3.355,-1.171 5.215,-1.188 0.5,-0.005 1.01,0.019 1.526,0.07 0.706,-1.655 1.553,-3.374 2.57,-5.134 0.019,-0.031 0.037,-0.062 0.056,-0.094 0.719,-1.182 1.352,-2.266 1.964,-3.314 1.346,-2.306 2.602,-4.455 4.364,-6.94 0.62,-1.063 1.353,-2.109 2.224,-3.129 0.143,-0.167 0.307,-0.303 0.479,-0.423 1.227,-1.516 2.662,-3.18 4.406,-5.077 0.25,-0.272 0.511,-0.524 0.78,-0.761 0.375,-0.482 0.79,-0.892 1.254,-1.203 10.659,-7.154 27.149,-3.525 35.576,15.7 8.226,18.768 31.349,57.231 45.034,79.344 8.795,14.213 2.909,34.212 -6.333,41.143 -0.779,0.799 -1.59,1.401 -2.333,1.845 -10.371,6.189 -20.175,9.368 -29.14,9.45 C 52.109,82.528 40.757,76.336 30.518,63.479 21.108,51.663 20.013,39.865 19.213,31.25 l -0.124,-1.32 c -0.01,-0.109 -0.017,-0.219 -0.02,-0.329 -0.033,-1.142 -0.021,-2.288 0.036,-3.415 C 10.726,24.062 1.619,14.864 -4.504,2.172 c -3.815,-7.911 -5.945,-16.138 -5.997,-23.166"
         style="fill:#211d1e;fill-opacity:1;fill-rule:nonzero;stroke:none"
         id="path44321" /></g><g
       id="g44323"
       transform="matrix(8.4399564,0,0,8.4399564,1892.044,1772.14)"><path
         d="M 0,0 C -5.014,11.014 -13.334,18.006 -18.582,15.616 -23.83,13.227 -24.019,2.362 -19.005,-8.652 -13.991,-19.667 -5.671,-26.658 -0.423,-24.269 4.825,-21.88 5.014,-11.014 0,0"
         style="fill:#ffffff;fill-opacity:1;fill-rule:nonzero;stroke:none"
         id="path44325" /></g><g
       id="g44327"
       transform="matrix(8.4399564,0,0,8.4399564,2516.4151,3700.1612)"><path
         d="m 0,0 c -0.304,1.548 -7.721,38.114 -30.996,53.544 -22.407,14.859 -37.608,22.288 -43.064,41.186 -2.595,8.989 -9.379,34.166 -15.076,53.585 l -63.533,-21.233 c 2.341,-10.622 11.843,-50.406 2.794,-70.454 -9.048,-20.048 -30.162,-59.521 -23.235,-88.486 0.41,-1.715 67.324,-231.926 67.324,-231.926 54.807,-6.04 103.484,8.876 145.75,45.703 0,0 -32.462,181.074 -39.964,218.081"
         style="fill:#211d1e;fill-opacity:1;fill-rule:nonzero;stroke:none"
         id="path44329" /></g><g
       id="g44331"
       transform="matrix(8.4399564,0,0,8.4399564,2516.4151,3700.1612)"><path
         d="m 0,0 c -0.304,1.548 -7.721,38.114 -30.996,53.544 -22.407,14.859 -37.608,22.288 -43.064,41.186 -2.595,8.989 -9.379,34.166 -15.076,53.585 l -63.533,-21.233 c 2.341,-10.622 11.843,-50.406 2.794,-70.454 -9.048,-20.048 -30.162,-59.521 -23.235,-88.486 0.41,-1.715 67.324,-231.926 67.324,-231.926 54.807,-6.04 103.484,8.876 145.75,45.703 0,0 -32.462,181.074 -39.964,218.081 z"
         style="fill:none;stroke:#ffffff;stroke-width:18;stroke-linecap:butt;stroke-linejoin:miter;stroke-miterlimit:10;stroke-dasharray:none;stroke-opacity:1"
         id="path44333" /></g><g
       id="g44335"
       transform="matrix(8.4399564,0,0,8.4399564,2516.4151,3700.1612)"><path
         d="m 0,0 c -0.304,1.548 -7.721,38.114 -30.996,53.544 -22.407,14.859 -37.608,22.288 -43.064,41.186 -2.595,8.989 -9.379,34.166 -15.076,53.585 l -63.533,-21.233 c 2.341,-10.622 11.843,-50.406 2.794,-70.454 -9.048,-20.048 -30.162,-59.521 -23.235,-88.486 0.41,-1.715 67.324,-231.926 67.324,-231.926 54.807,-6.04 103.484,8.876 145.75,45.703 0,0 -32.462,181.074 -39.964,218.081 z"
         style="fill:none;stroke:#211d1e;stroke-width:7.666;stroke-linecap:butt;stroke-linejoin:miter;stroke-miterlimit:10;stroke-dasharray:none;stroke-opacity:1"
         id="path44337" /></g><g
       id="g44339"
       transform="matrix(8.4399564,0,0,8.4399564,1749.3202,4371.0694)"><path
         d="m 0,0 c 1.397,-0.061 3.905,-11.939 13.485,-21.152 9.308,-9.541 20.368,-11.138 20.557,-12.65 0.682,-1.617 -12.16,-2.626 -23.682,8.892 C -1.232,-13.477 -1.538,0.588 0,0"
         style="fill:#ffffff;fill-opacity:1;fill-rule:nonzero;stroke:none"
         id="path44341" /></g><g
       id="g44343"
       transform="matrix(8.4399564,0,0,8.4399564,1015.2997,2069.1294)"><path
         d="M 0,0 C -34.229,36.843 29.834,53.68 62.295,37.004"
         style="fill:none;stroke:#211d1e;stroke-width:20;stroke-linecap:round;stroke-linejoin:miter;stroke-miterlimit:10;stroke-dasharray:none;stroke-opacity:1"
         id="path44345" /></g><g
       id="g44347"
       transform="matrix(8.4399564,0,0,8.4399564,1405.0991,1488.1524)"><path
         d="m 0,0 c -0.086,-0.339 -0.185,-0.675 -0.295,-1.005 -1.877,-5.625 -6.893,-9.494 -10.961,-11.24 -6.368,-2.734 -16.227,-0.21 -24.534,6.281 -5.894,4.605 -12.571,12.064 -14.2,18.344 l -0.552,2.129 c -0.356,0.116 -0.715,0.245 -1.074,0.388 -1.669,0.595 -3.29,1.465 -4.819,2.586 l -0.08,0.059 -0.495,0.414 c -0.318,0.266 -0.637,0.531 -0.948,0.8 -6.443,5.561 -10.547,16.47 -5.945,24.398 0.777,1.338 2.108,2.965 3.874,4.732 l -1.349,2.213 c -4.007,3.371 -4.214,6.8 -3.676,9.09 1.696,7.223 12.847,14.071 22.205,16.274 5.873,1.382 14.156,1.34 18.463,-2.022 l 0.002,-0.002 c 1.483,-1.159 2.418,-2.649 2.778,-4.429 l 0.483,-2.381 c 1.337,0.023 2.657,-0.042 3.954,-0.204 5.015,-0.626 9.752,-2.514 13.338,-5.316 2.733,-2.136 5.989,-7.095 7.786,-10.7 3.158,-0.154 6.093,-1.572 8.004,-3.065 0.131,-0.103 0.255,-0.203 0.361,-0.295 10.328,-8.78 11.688,-19.466 3.732,-29.318 L 13.228,14.234 C 13.197,13.542 13.104,12.884 12.95,12.261 L 12.949,12.26 C 11.933,8.165 7.279,3.675 3.367,1.7 Z"
         style="fill:#ffffff;fill-opacity:1;fill-rule:nonzero;stroke:none"
         id="path44349" /></g><g
       id="g44351"
       transform="matrix(8.4399564,0,0,8.4399564,1423.0087,1526.2579)"><path
         d="m 0,0 c -0.039,2.998 -1.779,8.38 -6.247,13.706 -0.026,0.032 -0.055,0.059 -0.084,0.082 -0.383,0.299 -0.976,-0.101 -0.772,-0.597 2.444,-5.941 2.947,-10.328 2.54,-13.576 0.029,-1.359 -0.148,-2.714 -0.593,-4.049 -1.562,-4.682 -5.828,-7.942 -9.299,-9.432 -5.308,-2.279 -14.151,0.143 -21.503,5.888 -5.658,4.42 -11.76,11.399 -13.143,16.734 5.561,-0.021 9.76,3.259 9.304,3.818 -0.303,0.809 -6.485,-1.778 -12.775,0.753 -1.572,0.555 -2.932,1.339 -4.105,2.198 -0.445,0.375 -0.898,0.746 -1.336,1.124 -5.406,4.667 -9.09,14.11 -5.31,20.622 3.78,6.511 26.115,24.007 43.768,21.8 4.151,-0.519 8.492,-2.07 11.862,-4.704 2.576,-2.013 6.421,-8.032 7.74,-11.432 3.235,0.553 6.441,-1.076 8.05,-2.333 C 8.191,40.528 8.279,40.456 8.362,40.385 21.85,28.918 14.375,18.547 11.702,15.238 11.337,19.551 7.396,25.548 2.229,30.28 2.221,30.287 2.213,30.294 2.205,30.3 1.906,30.534 1.489,30.165 1.707,29.835 4.414,25.739 6.823,20.128 7.81,13.411 c 0,-10e-4 0,-0.002 0,-0.003 C 8.262,11.608 8.358,9.957 8.023,8.605 7.25,5.491 3.251,1.642 0,0 m -26.56,64.037 c -8.546,-0.938 -16.726,-4.786 -22.636,-8.299 -4.266,-2.536 -8.346,-5.512 -11.66,-8.415 -0.141,0.232 -0.312,0.45 -0.533,0.634 -2.37,1.965 -3.272,3.983 -2.76,6.168 1.369,5.826 11.624,12.075 19.973,14.04 5.233,1.232 12.594,1.137 15.928,-1.466 0.001,0 0.002,-0.001 0.003,-0.002 0.919,-0.718 1.467,-1.58 1.685,-2.66 m 28.814,-68.5 c 4.255,2.149 9.423,7.036 10.622,11.864 0.134,0.542 0.23,1.105 0.286,1.686 l 2.43,3.009 c 3.193,3.953 4.981,7.904 5.467,12.078 0.579,4.973 -0.592,12.483 -9.458,20.021 -0.133,0.113 -0.275,0.229 -0.426,0.347 -1.931,1.509 -4.792,2.949 -7.958,3.375 -1.978,3.708 -5.089,8.247 -7.831,10.39 -3.866,3.021 -8.952,5.054 -14.321,5.725 -0.864,0.108 -1.73,0.164 -2.596,0.197 -0.317,2.585 -1.558,4.785 -3.636,6.408 -0.002,0.002 -0.004,0.003 -0.005,0.004 -5.555,4.336 -15.609,3.46 -20.15,2.391 -8.334,-1.962 -21.627,-8.963 -23.694,-17.764 -0.671,-2.857 -0.446,-7.111 4.434,-11.16 0.069,-0.056 0.145,-0.096 0.217,-0.143 -1.419,-1.502 -2.552,-2.926 -3.282,-4.184 -5.117,-8.814 -0.679,-20.835 6.366,-26.917 1.794,-1.548 3.708,-3.118 5.69,-4.666 0.607,-0.475 1.227,-0.953 1.854,-1.428 2.297,-7.429 10.093,-15.088 14.7,-18.688 8.864,-6.926 19.535,-9.556 26.554,-6.543 2.168,0.93 9.445,4.578 12.07,12.445 0.027,0.082 0.054,0.164 0.08,0.247 z"
         style="fill:#211d1e;fill-opacity:1;fill-rule:nonzero;stroke:none"
         id="path44353" /></g><g
       id="g44355"
       transform="matrix(8.4399564,0,0,8.4399564,1273.3961,1763.7473)"><path
         d="m 0,0 c -4.229,3.765 -7.952,6.575 -12.262,9.83 l -1.579,1.196 c -0.669,0.406 -0.929,1.299 -0.58,1.99 0.097,0.191 0.253,0.374 0.467,0.504 0.359,0.218 0.881,0.288 1.556,0.011 C -7.619,11.564 -1.102,7.797 2.713,3.784 L 2.805,3.671 C 3.719,2.542 4.971,0.996 3.865,-0.474 3.551,-0.894 3.126,-1.141 2.638,-1.19 1.671,-1.286 0.67,-0.596 0,0"
         style="fill:#211d1e;fill-opacity:1;fill-rule:nonzero;stroke:none"
         id="path44357" /></g><g
       id="g44359"
       transform="matrix(8.4399564,0,0,8.4399564,1214.1847,1698.0963)"><path
         d="m 0,0 0.001,-0.001 c 0.567,-0.94 1.895,-3.143 0.185,-4.572 -0.507,-0.424 -1.07,-0.604 -1.674,-0.533 -1.103,0.129 -2.012,1.06 -2.579,1.818 -3.836,5.125 -7.596,10.278 -11.764,16.001 -0.765,1.065 -0.463,1.652 -0.214,1.906 0.059,0.061 0.126,0.113 0.198,0.157 0.52,0.316 1.335,0.207 1.821,-0.123 C -10.928,12.784 -2.277,3.746 0,0"
         style="fill:#211d1e;fill-opacity:1;fill-rule:nonzero;stroke:none"
         id="path44361" /></g><g
       id="g44363"
       transform="matrix(8.4399564,0,0,8.4399564,1229.2205,3493.6339)"><path
         d="m 0,0 c 0,0 61.568,39.509 144.954,28.717 l 33.944,-187.915 c 0,0 -60.069,-45.032 -123.326,-36.17 z"
         style="fill:#ffffff;fill-opacity:1;fill-rule:nonzero;stroke:none"
         id="path44365" /></g><g
       id="g44367"
       transform="matrix(8.4399564,0,0,8.4399564,1808.9011,4780.6876)"><path
         d="m 0,0 c -20.661,-9.289 -42.675,-15.219 -65.206,-17.569 -7.118,-0.612 -14.397,4.732 -16.193,11.383 -1.99,7.387 -3.98,14.774 -5.97,22.161 -1.79,6.653 1.816,14.929 8.282,17.977 20.661,9.289 42.675,15.219 65.206,17.569 7.117,0.612 14.4,-4.73 16.192,-11.383 C 4.302,32.751 6.292,25.364 8.282,17.977 10.074,11.325 6.461,3.046 0,0"
         style="fill:#ffffff;fill-opacity:1;fill-rule:nonzero;stroke:none"
         id="path44369" /></g><g
       id="g44371"
       transform="matrix(8.4399564,0,0,8.4399564,1808.9011,4780.6876)"><path
         d="m 0,0 c -20.661,-9.289 -42.675,-15.219 -65.206,-17.569 -7.118,-0.612 -14.397,4.732 -16.193,11.383 -1.99,7.387 -3.98,14.774 -5.97,22.161 -1.79,6.653 1.816,14.929 8.282,17.977 20.661,9.289 42.675,15.219 65.206,17.569 7.117,0.612 14.4,-4.73 16.192,-11.383 C 4.302,32.751 6.292,25.364 8.282,17.977 10.074,11.325 6.461,3.046 0,0 Z"
         style="fill:none;stroke:#211d1e;stroke-width:7.666;stroke-linecap:butt;stroke-linejoin:miter;stroke-miterlimit:10;stroke-dasharray:none;stroke-opacity:1"
         id="path44373" /></g><g
       id="g44375"
       transform="matrix(8.4399564,0,0,8.4399564,2307.3439,2431.732)"><path
         d="m 0,0 c -0.888,0.625 -6.541,-5.776 -15.663,-7.112 -9.067,-1.674 -16.482,2.563 -17.12,1.686 -0.981,-0.71 6.748,-8.114 17.871,-6.227 C -3.775,-9.855 1.157,-0.355 0,0"
         style="fill:#211d1e;fill-opacity:1;fill-rule:nonzero;stroke:none"
         id="path44377" /></g><g
       id="g44379"
       transform="matrix(8.4399564,0,0,8.4399564,1672.7554,2561.3874)"><path
         d="m 0,0 c -0.094,0.557 0.432,0.994 1.532,1.905 1.484,1.231 3.968,3.292 5.837,6.497 1.999,3.143 2.718,6.336 3.148,8.244 0.318,1.409 0.471,2.09 0.999,2.27 0.302,0.139 0.746,0.099 1.259,-0.7 0.657,-1.023 1.417,-3.232 1.463,-5.865 C 20.767,11.446 33.49,9.153 47.51,13.274 67.24,18.342 78.43,32.832 80.486,31.787 82.059,31.53 79.242,24.374 71.463,17.311 71.46,17.307 71.458,17.303 71.455,17.298 70.228,15.323 81.849,5.188 75.079,-3.97 68.309,-13.128 52.333,-19.633 33.643,-8.801 14.954,2.031 13.121,4.353 9.84,2.302 c 0,0 -10e-4,10e-4 -10e-4,10e-4 C 7.097,-0.059 3.813,-0.81 1.93,-0.836 0.457,-0.857 0.194,-0.447 0.108,-0.312 0.046,-0.216 0.01,-0.11 0,0"
         style="fill:#211d1e;fill-opacity:1;fill-rule:nonzero;stroke:none"
         id="path44381" /></g><g
       id="g44383"
       transform="matrix(8.4399564,0,0,8.4399564,2232.1295,2525.1319)"><path
         d="m 0,0 c -2.58,-2.589 -5.971,-3.342 -9.196,-3.956 -4.453,-0.251 -8.584,0.152 -12.366,2.312 -0.941,0.537 -1.988,1.139 -1.903,2.437 0.082,1.254 1.126,1.801 2.098,2.315 4.137,2.19 8.75,1.514 12.239,-1.818 0.557,-0.532 1.085,-1.135 1.848,-0.583 0.634,0.458 0.372,1.21 0.052,1.74 -1.204,1.988 -2.315,3.923 0.511,5.518 2.54,1.434 6.093,0.973 7.514,-0.969 C 2.273,4.978 1.979,1.986 0,0"
         style="fill:#c46565;fill-opacity:1;fill-rule:nonzero;stroke:none"
         id="path44385" /></g><g
       id="g44387"
       transform="matrix(8.4399564,0,0,8.4399564,2101.7828,2609.7974)"><path
         d="M 0,0 C 0.287,1.603 -0.129,3.002 -0.879,2.908 -2.694,2.68 -4.479,2.281 -6.234,1.76 -6.975,1.54 -6.834,0.341 -6.139,-0.87 -4.141,-3.921 -0.493,-2.755 0,0 M 8.743,3.528 C 8.655,5.154 7.93,6.421 7.221,6.157 5.506,5.52 3.86,4.722 2.272,3.813 1.601,3.429 2.013,2.294 2.967,1.274 5.611,-1.237 8.895,0.733 8.743,3.528"
         style="fill:#ffffff;fill-opacity:1;fill-rule:nonzero;stroke:none"
         id="path44389" /></g><g
       id="g44391"
       transform="matrix(8.4399564,0,0,8.4399564,1772.3164,3408.9126)"><path
         d="m 0,0 c -0.317,-0.912 -6.647,2.87 -13.124,0.663 -6.581,-1.874 -9.632,-8.588 -10.411,-8.018 -0.932,0.286 1.007,10.045 9.011,12.499 C -6.548,7.684 0.603,0.765 0,0"
         style="fill:#211d1e;fill-opacity:1;fill-rule:nonzero;stroke:none"
         id="path44393" /></g><g
       id="g44395"
       transform="matrix(8.4399564,0,0,8.4399564,1765.1696,3090.3473)"><path
         d="m 0,0 5.363,11.726 c -1.64,4.58 -3.741,8.865 -6.491,12.737 -1.221,1.718 -2.607,3.245 -4.411,4.255 -2.958,1.654 -5.362,0.581 -7.188,-3.302 -1.705,-3.626 -1.91,-7.251 -1.82,-10.833 0.305,-12.04 3.719,-22.524 7.898,-32.621 1.69,-3.786 3.744,-7.257 6.413,-10.172 1.489,-1.625 3.272,-3.128 5.911,-1.798 2.495,1.257 3.208,3.964 3.7,6.401 1.453,7.198 0.891,13.897 -0.237,20.432 z"
         style="fill:#211d1e;fill-opacity:1;fill-rule:nonzero;stroke:none"
         id="path44397" /></g><g
       id="g44399"
       transform="matrix(8.4399564,0,0,8.4399564,2225.0358,3504.826)"><path
         d="m 0,0 c -0.394,-0.882 -6.375,3.432 -13.018,1.79 -6.718,-1.3 -10.336,-7.726 -11.063,-7.091 -0.904,0.365 1.868,9.92 10.054,11.676 C -5.862,8.219 0.667,0.71 0,0"
         style="fill:#211d1e;fill-opacity:1;fill-rule:nonzero;stroke:none"
         id="path44401" /></g><g
       id="g44403"
       transform="matrix(8.4399564,0,0,8.4399564,2190.4901,3188.0601)"><path
         d="m 0,0 6.353,11.22 c -1.24,4.705 -2.964,9.155 -5.371,13.249 -1.069,1.817 -2.318,3.458 -4.028,4.619 -2.804,1.903 -5.293,1.041 -7.446,-2.671 -2.011,-3.466 -2.527,-7.06 -2.745,-10.636 -0.733,-12.022 1.765,-22.76 5.06,-33.18 1.358,-3.917 3.105,-7.552 5.513,-10.686 1.343,-1.748 2.991,-3.398 5.735,-2.3 2.593,1.037 3.537,3.673 4.237,6.058 2.067,7.046 2.083,13.769 1.523,20.377 z"
         style="fill:#211d1e;fill-opacity:1;fill-rule:nonzero;stroke:none"
         id="path44405" /></g><g
       id="g44407"
       transform="matrix(8.4399564,0,0,8.4399564,1389.7595,5051.0674)"><path
         d="m 0,0 c 0.26,-1.12 -9.389,-1.948 -15.161,-8.746 -6.115,-6.545 -5.006,-15.303 -6.265,-15.302 -1.237,-0.388 -4.985,10.068 2.333,18.2 C -11.864,2.348 0.16,1.181 0,0"
         style="fill:#211d1e;fill-opacity:1;fill-rule:nonzero;stroke:none"
         id="path44409" /></g><g
       id="g44411"
       transform="matrix(8.4399564,0,0,8.4399564,2079.8169,2882.705)"><path
         d="m 0,0 c -0.521,0.322 -0.976,-0.216 -1.654,-1.021 -1.05,-1.246 -2.808,-3.331 -5.534,-4.082 -2.661,-0.878 -5.282,-0.122 -6.846,0.332 -1.012,0.293 -1.69,0.491 -1.941,-0.069 -0.149,-0.256 -0.09,-0.583 0.175,-0.973 0.734,-1.08 3.677,-3.524 7.357,-3.524 0.783,0 1.6,0.111 2.436,0.369 4.784,1.422 6.388,6.479 6.402,8.061 C 0.398,-0.435 0.267,-0.131 0,0"
         style="fill:#211d1e;fill-opacity:1;fill-rule:nonzero;stroke:none"
         id="path44413" /></g></g></svg>
